<svg width="119" height="30" viewBox="0 0 119 30" fill="none" xmlns="http://www.w3.org/2000/svg">
<path fill-rule="evenodd" clip-rule="evenodd" d="M10.5 5C16.0229 5 20.5 9.47715 20.5 15C20.5 20.5229 16.0229 25 10.5 25C4.97715 25 0.5 20.5229 0.5 15C0.5 9.47715 4.97715 5 10.5 5ZM10.1385 5.7483C8.99775 5.90885 7.91145 6.82554 7.0682 8.3587C6.8236 8.80342 6.6029 9.29473 6.41055 9.82522C7.55715 9.53709 8.8167 9.36721 10.1385 9.34094V5.7483ZM5.5654 10.0654C5.80455 9.31479 6.09715 8.6242 6.4348 8.01032C6.8528 7.25029 7.3489 6.59398 7.90785 6.08988C4.8684 6.97262 2.47261 9.36839 1.58989 12.4078C2.09397 11.8489 2.7503 11.3528 3.51033 10.9348C4.1242 10.5972 4.81479 10.3046 5.5654 10.0654ZM5.3252 10.9106C5.03708 12.0572 4.86721 13.3167 4.84094 14.6385H1.24829C1.40885 13.4977 2.32554 12.4114 3.8587 11.5682C4.30342 11.3236 4.79473 11.1029 5.3252 10.9106ZM5.564 14.6385C5.59385 13.196 5.8015 11.8417 6.1451 10.6451C7.3417 10.3015 8.69605 10.0938 10.1385 10.064V11.6254C9.6004 13.0031 8.5028 14.1006 7.12505 14.6385H5.564ZM4.84094 15.3615H1.24829C1.40885 16.5023 2.32554 17.5885 3.8587 18.4318C4.30342 18.6764 4.79473 18.8971 5.3252 19.0894C5.03708 17.9428 4.86721 16.6833 4.84094 15.3615ZM6.1451 19.3549C5.8015 18.1583 5.59385 16.804 5.564 15.3615H7.12505C8.5028 15.8994 9.60045 16.9969 10.1385 18.3746V19.9361C8.69605 19.9062 7.3417 19.6985 6.1451 19.3549ZM5.5654 19.9346C4.81479 19.6954 4.1242 19.4028 3.51033 19.0652C2.7503 18.6472 2.09397 18.1511 1.58989 17.5921C2.47261 20.6316 4.8684 23.0274 7.90785 23.9101C7.3489 23.406 6.8528 22.7497 6.4348 21.9897C6.09715 21.3758 5.80455 20.6852 5.5654 19.9346ZM10.1385 24.2517C8.99775 24.0911 7.91145 23.1745 7.0682 21.6413C6.8236 21.1966 6.6029 20.7052 6.41055 20.1748C7.55715 20.4629 8.8167 20.6328 10.1385 20.659V24.2517ZM13.0921 23.9101C13.6511 23.406 14.1472 22.7497 14.5653 21.9897C14.9029 21.3758 15.1955 20.6852 15.4346 19.9346C16.1852 19.6954 16.8758 19.4028 17.4897 19.0652C18.2497 18.6472 18.9061 18.1511 19.4101 17.5921C18.5274 20.6316 16.1316 23.0274 13.0921 23.9101ZM14.5895 20.1748C14.3971 20.7052 14.1764 21.1966 13.9318 21.6413C13.0886 23.1745 12.0023 24.0911 10.8614 24.2517V20.659C12.1833 20.6328 13.4429 20.4629 14.5895 20.1748ZM15.6748 19.0894C16.2053 18.8971 16.6966 18.6764 17.1413 18.4318C18.6745 17.5885 19.5912 16.5023 19.7517 15.3615H16.1591C16.1328 16.6833 15.9629 17.9428 15.6748 19.0894ZM15.4361 15.3615C15.4062 16.804 15.1985 18.1583 14.8549 19.3549C13.6583 19.6985 12.304 19.9062 10.8614 19.9361V18.3757C11.3994 16.9975 12.4972 15.8996 13.8754 15.3615H15.4361ZM16.1591 14.6385H19.7517C19.5912 13.4977 18.6745 12.4114 17.1413 11.5682C16.6966 11.3236 16.2053 11.1029 15.6748 10.9106C15.9629 12.0572 16.1328 13.3167 16.1591 14.6385ZM14.8549 10.6451C15.1985 11.8417 15.4062 13.196 15.4361 14.6385H13.8754C12.4972 14.1004 11.3994 13.0024 10.8614 11.6242V10.064C12.304 10.0938 13.6583 10.3015 14.8549 10.6451ZM15.4346 10.0654C16.1852 10.3046 16.8758 10.5972 17.4897 10.9348C18.2497 11.3528 18.9061 11.8489 19.4101 12.4078C18.5274 9.36839 16.1316 6.97262 13.0921 6.08988C13.6511 6.59398 14.1472 7.25029 14.5653 8.01032C14.9029 8.6242 15.1955 9.31479 15.4346 10.0654ZM10.8614 5.7483C12.0023 5.90885 13.0886 6.82554 13.9318 8.3587C14.1764 8.80342 14.3971 9.29473 14.5895 9.82522C13.4429 9.53709 12.1833 9.36721 10.8614 9.34094V5.7483Z" fill="#005A34"/>
<path d="M27.492 6.7H35.124C36.948 6.7 38.556 7.052 39.948 7.756C41.356 8.444 42.444 9.42 43.212 10.684C43.996 11.948 44.388 13.42 44.388 15.1C44.388 16.78 43.996 18.252 43.212 19.516C42.444 20.78 41.356 21.764 39.948 22.468C38.556 23.156 36.948 23.5 35.124 23.5H27.492V6.7ZM34.932 20.308C36.612 20.308 37.948 19.844 38.94 18.916C39.948 17.972 40.452 16.7 40.452 15.1C40.452 13.5 39.948 12.236 38.94 11.308C37.948 10.364 36.612 9.892 34.932 9.892H31.38V20.308H34.932ZM45.1361 10.588H48.8801V23.5H45.1361V10.588ZM47.0081 8.788C46.3201 8.788 45.7601 8.588 45.3281 8.188C44.8961 7.788 44.6801 7.292 44.6801 6.7C44.6801 6.108 44.8961 5.612 45.3281 5.212C45.7601 4.812 46.3201 4.612 47.0081 4.612C47.6961 4.612 48.2561 4.804 48.6881 5.188C49.1201 5.572 49.3361 6.052 49.3361 6.628C49.3361 7.252 49.1201 7.772 48.6881 8.188C48.2561 8.588 47.6961 8.788 47.0081 8.788ZM63.7549 10.588V21.34C63.7549 23.708 63.1389 25.468 61.9069 26.62C60.6749 27.772 58.8749 28.348 56.5069 28.348C55.2589 28.348 54.0749 28.196 52.9549 27.892C51.8349 27.588 50.9069 27.148 50.1709 26.572L51.6589 23.884C52.2029 24.332 52.8909 24.684 53.7229 24.94C54.5549 25.212 55.3869 25.348 56.2189 25.348C57.5149 25.348 58.4669 25.052 59.0749 24.46C59.6989 23.884 60.0109 23.004 60.0109 21.82V21.268C59.0349 22.34 57.6749 22.876 55.9309 22.876C54.7469 22.876 53.6589 22.62 52.6669 22.108C51.6909 21.58 50.9149 20.844 50.3389 19.9C49.7629 18.956 49.4749 17.868 49.4749 16.636C49.4749 15.404 49.7629 14.316 50.3389 13.372C50.9149 12.428 51.6909 11.7 52.6669 11.188C53.6589 10.66 54.7469 10.396 55.9309 10.396C57.8029 10.396 59.2269 11.012 60.2029 12.244V10.588H63.7549ZM56.6749 19.804C57.6669 19.804 58.4749 19.516 59.0989 18.94C59.7389 18.348 60.0589 17.58 60.0589 16.636C60.0589 15.692 59.7389 14.932 59.0989 14.356C58.4749 13.764 57.6669 13.468 56.6749 13.468C55.6829 13.468 54.8669 13.764 54.2269 14.356C53.5869 14.932 53.2669 15.692 53.2669 16.636C53.2669 17.58 53.5869 18.348 54.2269 18.94C54.8669 19.516 55.6829 19.804 56.6749 19.804ZM65.3196 10.588H69.0636V23.5H65.3196V10.588ZM67.1916 8.788C66.5036 8.788 65.9436 8.588 65.5116 8.188C65.0796 7.788 64.8636 7.292 64.8636 6.7C64.8636 6.108 65.0796 5.612 65.5116 5.212C65.9436 4.812 66.5036 4.612 67.1916 4.612C67.8796 4.612 68.4396 4.804 68.8716 5.188C69.3036 5.572 69.5196 6.052 69.5196 6.628C69.5196 7.252 69.3036 7.772 68.8716 8.188C68.4396 8.588 67.8796 8.788 67.1916 8.788ZM78.3943 22.876C78.0263 23.148 77.5703 23.356 77.0263 23.5C76.4983 23.628 75.9463 23.692 75.3703 23.692C73.8183 23.692 72.6263 23.3 71.7943 22.516C70.9623 21.732 70.5463 20.58 70.5463 19.06V7.732H74.2903V10.876H77.4823V13.756H74.2903V19.012C74.2903 19.556 74.4263 19.98 74.6983 20.284C74.9703 20.572 75.3623 20.716 75.8743 20.716C76.4503 20.716 76.9623 20.556 77.4103 20.236L78.3943 22.876ZM84.6945 20.692C85.3665 20.692 85.9585 20.596 86.4705 20.404C86.9985 20.196 87.4865 19.876 87.9345 19.444L89.9265 21.604C88.7105 22.996 86.9345 23.692 84.5985 23.692C83.1425 23.692 81.8545 23.412 80.7345 22.852C79.6145 22.276 78.7505 21.484 78.1425 20.476C77.5345 19.468 77.2305 18.324 77.2305 17.044C77.2305 15.78 77.5265 14.644 78.1185 13.636C78.7265 12.612 79.5505 11.82 80.5905 11.26C81.6465 10.684 82.8305 10.396 84.1425 10.396C85.3745 10.396 86.4945 10.66 87.5025 11.188C88.5105 11.7 89.3105 12.452 89.9025 13.444C90.5105 14.42 90.8145 15.58 90.8145 16.924L81.2625 18.772C81.5345 19.412 81.9585 19.892 82.5345 20.212C83.1265 20.532 83.8465 20.692 84.6945 20.692ZM84.1425 13.228C83.1985 13.228 82.4305 13.532 81.8385 14.14C81.2465 14.748 80.9345 15.588 80.9025 16.66L87.1905 15.436C87.0145 14.764 86.6545 14.228 86.1105 13.828C85.5665 13.428 84.9105 13.228 84.1425 13.228ZM97.6511 23.692C96.2751 23.692 95.0351 23.412 93.9311 22.852C92.8431 22.276 91.9871 21.484 91.3631 20.476C90.7551 19.468 90.4511 18.324 90.4511 17.044C90.4511 15.764 90.7551 14.62 91.3631 13.612C91.9871 12.604 92.8431 11.82 93.9311 11.26C95.0351 10.684 96.2751 10.396 97.6511 10.396C99.0111 10.396 100.195 10.684 101.203 11.26C102.227 11.82 102.971 12.628 103.435 13.684L100.531 15.244C99.8591 14.06 98.8911 13.468 97.6271 13.468C96.6511 13.468 95.8431 13.788 95.2031 14.428C94.5631 15.068 94.2431 15.94 94.2431 17.044C94.2431 18.148 94.5631 19.02 95.2031 19.66C95.8431 20.3 96.6511 20.62 97.6271 20.62C98.9071 20.62 99.8751 20.028 100.531 18.844L103.435 20.428C102.971 21.452 102.227 22.252 101.203 22.828C100.195 23.404 99.0111 23.692 97.6511 23.692ZM111.425 10.396C113.025 10.396 114.313 10.876 115.289 11.836C116.281 12.796 116.777 14.22 116.777 16.108V23.5H113.033V16.684C113.033 15.66 112.809 14.9 112.361 14.404C111.913 13.892 111.265 13.636 110.417 13.636C109.473 13.636 108.721 13.932 108.161 14.524C107.601 15.1 107.321 15.964 107.321 17.116V23.5H103.577V5.692H107.321V11.932C107.817 11.436 108.417 11.06 109.121 10.804C109.825 10.532 110.593 10.396 111.425 10.396Z" fill="#005A34"/>
</svg>
