<svg width="20" height="20" viewBox="0 0 20 20" fill="none" xmlns="http://www.w3.org/2000/svg">
<path fill-rule="evenodd" clip-rule="evenodd" d="M10 0C15.5229 0 20 4.47715 20 10C20 15.5229 15.5229 20 10 20C4.47715 20 0 15.5229 0 10C0 4.47715 4.47715 0 10 0ZM9.63855 0.748295C8.49775 0.908845 7.41145 1.82554 6.5682 3.3587C6.3236 3.80342 6.1029 4.29473 5.91055 4.82522C7.05715 4.53709 8.3167 4.36721 9.63855 4.34094V0.748295ZM5.0654 5.0654C5.30455 4.31479 5.59715 3.6242 5.9348 3.01032C6.3528 2.25029 6.8489 1.59398 7.40785 1.08988C4.3684 1.97262 1.97261 4.36839 1.08989 7.40785C1.59397 6.8489 2.2503 6.3528 3.01033 5.9348C3.6242 5.59715 4.31479 5.30455 5.0654 5.0654ZM4.8252 5.91055C4.53708 7.05715 4.36721 8.3167 4.34094 9.63855H0.748292C0.908847 8.4977 1.82554 7.4114 3.3587 6.5682C3.80342 6.3236 4.29473 6.1029 4.8252 5.91055ZM5.064 9.63855C5.09385 8.196 5.3015 6.8417 5.6451 5.6451C6.8417 5.3015 8.19605 5.0938 9.63855 5.06395V6.6254C9.1004 8.0031 8.0028 9.1006 6.62505 9.63855H5.064ZM4.34094 10.3615H0.748292C0.908847 11.5023 1.82554 12.5885 3.3587 13.4318C3.80342 13.6764 4.29473 13.8971 4.8252 14.0894C4.53708 12.9428 4.36721 11.6833 4.34094 10.3615ZM5.6451 14.3549C5.3015 13.1583 5.09385 11.804 5.064 10.3615H6.62505C8.0028 10.8994 9.10045 11.9969 9.63855 13.3746V14.9361C8.19605 14.9062 6.8417 14.6985 5.6451 14.3549ZM5.0654 14.9346C4.31479 14.6954 3.6242 14.4028 3.01033 14.0652C2.2503 13.6472 1.59397 13.1511 1.08989 12.5921C1.97261 15.6316 4.3684 18.0274 7.40785 18.9101C6.8489 18.406 6.3528 17.7497 5.9348 16.9897C5.59715 16.3758 5.30455 15.6852 5.0654 14.9346ZM9.63855 19.2517C8.49775 19.0911 7.41145 18.1745 6.5682 16.6413C6.3236 16.1966 6.1029 15.7052 5.91055 15.1748C7.05715 15.4629 8.3167 15.6328 9.63855 15.659V19.2517ZM12.5921 18.9101C13.1511 18.406 13.6472 17.7497 14.0653 16.9897C14.4029 16.3758 14.6955 15.6852 14.9346 14.9346C15.6852 14.6954 16.3758 14.4028 16.9897 14.0652C17.7497 13.6472 18.4061 13.1511 18.9101 12.5921C18.0274 15.6316 15.6316 18.0274 12.5921 18.9101ZM14.0895 15.1748C13.8971 15.7052 13.6764 16.1966 13.4318 16.6413C12.5886 18.1745 11.5023 19.0911 10.3614 19.2517V15.659C11.6833 15.6328 12.9429 15.4629 14.0895 15.1748ZM15.1748 14.0894C15.7053 13.8971 16.1966 13.6764 16.6413 13.4318C18.1745 12.5885 19.0912 11.5023 19.2517 10.3615H15.6591C15.6328 11.6833 15.4629 12.9428 15.1748 14.0894ZM14.9361 10.3615C14.9062 11.804 14.6985 13.1583 14.3549 14.3549C13.1583 14.6985 11.804 14.9062 10.3614 14.9361V13.3757C10.8994 11.9975 11.9972 10.8996 13.3754 10.3615H14.9361ZM15.6591 9.63855H19.2517C19.0912 8.4977 18.1745 7.4114 16.6413 6.5682C16.1966 6.3236 15.7053 6.1029 15.1748 5.91055C15.4629 7.05715 15.6328 8.3167 15.6591 9.63855ZM14.3549 5.6451C14.6985 6.8417 14.9062 8.196 14.9361 9.63855H13.3754C11.9972 9.10045 10.8994 8.00245 10.3614 6.62425V5.06395C11.804 5.0938 13.1583 5.3015 14.3549 5.6451ZM14.9346 5.0654C15.6852 5.30455 16.3758 5.59715 16.9897 5.9348C17.7497 6.3528 18.4061 6.8489 18.9101 7.40785C18.0274 4.36839 15.6316 1.97262 12.5921 1.08988C13.1511 1.59398 13.6472 2.25029 14.0653 3.01032C14.4029 3.6242 14.6955 4.31479 14.9346 5.0654ZM10.3614 0.748295C11.5023 0.908845 12.5886 1.82554 13.4318 3.3587C13.6764 3.80342 13.8971 4.29473 14.0895 4.82522C12.9429 4.53709 11.6833 4.36721 10.3614 4.34094V0.748295Z" fill="#005A34"/>
</svg>
